<svg id="SvgjsSvg1015" width="288" height="288" xmlns="http://www.w3.org/2000/svg" version="1.1" xmlns:xlink="http://www.w3.org/1999/xlink" xmlns:svgjs="http://svgjs.com/svgjs"><circle id="SvgjsCircle1020" r="144" cx="144" cy="144" fill="#19d4ca" transform="matrix(0.9167,0,0,0.9167,11.995200000000011,11.995200000000011)"></circle><defs id="SvgjsDefs1016"></defs><g id="SvgjsG1017" transform="matrix(0.4652,0,0,0.4652,77.05682479858399,75.50799543578624)"><svg xmlns="http://www.w3.org/2000/svg" viewBox="0 0 512 512" width="288" height="288"><path fill="#ffffff" d="M501.56,15.41c-7-9.06-15.91-14-26.41-14.55a40.82,40.82,0,0,0-9.43.61c-1.56.28-3.1.64-4.62,1.07l-.22.06c-.69.2-1.38.4-2.06.62l-.33.12q-1,.32-1.92.66l-.44.18q-.88.33-1.77.69l-.41.17-1.76.76-.48.23c-.56.25-1.11.51-1.65.77l-.33.17c-.59.29-1.17.59-1.75.89l-.78.42L445.95,9l-.72.41c-.42.24-.84.48-1.25.73l-.62.37-1.29.79-.56.36-1.29.82-.55.37c-.41.28-.83.55-1.23.83l-.52.36-1.18.83-.6.43-1,.75-.57.42-1,.74-.39.31-1.07.83-.38.31-1,.78-.5.42-.77.63-.4.35-.77.65-.32.28-.74.65-.38.34-.58.52-.64.58-.2.18c-1.32,1.22-2.14,2-2.39,2.3L147.54,300.45c-29.61-5.74-61.06,4.69-77.71,26.16-23.15,29.74-26.08,58-28.9,85.23-2.78,26.78-5.4,52.08-28.41,76.75L.75,501.2H18c4.75,0,117-.64,162.2-57,18-22.32,27.73-51.7,26-77.52l42.58-41.91L455.87,121.07l27.06-26.6a98.58,98.58,0,0,0,15.63-16.66c.09-.12.18-.26.28-.38,1.46-2,2.89-4.14,4.24-6.4C514.87,51.21,514.35,32,501.56,15.41ZM203,348.81a68.33,68.33,0,0,0-12.2-23.26,70,70,0,0,0-27-20.17L198.2,271.2c19.67,7.54,31.62,22.8,36.43,46.5ZM473.26,83l-.31.24-18.27,18c-7-21.64-20.49-36.74-40.3-45.08l19.37-19.29c6-6.15,25.08-21.89,40.57-21,6,.35,11.08,3.22,15.37,8.76C511.09,52.3,474.83,81.74,473.26,83Z" class="color231f20 svgShape"></path></svg></g></svg>