<svg id="SvgjsSvg1021" width="288" height="288" xmlns="http://www.w3.org/2000/svg" version="1.1" xmlns:xlink="http://www.w3.org/1999/xlink" xmlns:svgjs="http://svgjs.com/svgjs"><circle id="SvgjsCircle1028" r="144" cx="144" cy="144" fill="#ffa710" transform="matrix(0.9167,0,0,0.9167,11.995200000000011,11.995200000000011)"></circle><defs id="SvgjsDefs1022"></defs><g id="SvgjsG1023" transform="matrix(0.4652,0,0,0.4652,77.0112,77.0112)"><svg xmlns="http://www.w3.org/2000/svg" width="288" height="288" viewBox="0 0 48 48"><circle cx="24" cy="24" r="6.4" fill="#ffffff" class="color000 svgShape"></circle><path d="M18 4l-3.66 4h-6.34c-2.21 0-4 1.79-4 4v24c0 2.21 1.79 4 4 4h32c2.21 0 4-1.79 4-4v-24c0-2.21-1.79-4-4-4h-6.34l-3.66-4h-12zm6 30c-5.52 0-10-4.48-10-10s4.48-10 10-10 10 4.48 10 10-4.48 10-10 10z" fill="#ffffff" class="color000 svgShape"></path><path fill="none" d="M0 0h48v48h-48z"></path></svg></g></svg>