<svg id="SvgjsSvg1001" width="288" height="288" xmlns="http://www.w3.org/2000/svg" version="1.1" xmlns:xlink="http://www.w3.org/1999/xlink" xmlns:svgjs="http://svgjs.com/svgjs"><circle id="SvgjsCircle1014" r="144" cx="144" cy="144" fill="#ff4e50" transform="matrix(0.9167,0,0,0.9167,11.995200000000011,11.995200000000011)"></circle><defs id="SvgjsDefs1002"></defs><g id="SvgjsG1008" transform="matrix(0.59,0,0,0.59,59.040000000000006,59.040000000000006)"><svg xmlns="http://www.w3.org/2000/svg" viewBox="0 0 24 24" width="288" height="288"><g data-name="Layer 2" fill="#ffffff" class="color000 svgShape"><g data-name="music" fill="#ffffff" class="color000 svgShape"><rect width="24" height="24" opacity="0" fill="#ffffff" class="color000 svgShape"></rect><path d="M19 15V4a1 1 0 0 0-.38-.78 1 1 0 0 0-.84-.2l-9 2A1 1 0 0 0 8 6v8.34a3.49 3.49 0 1 0 2 3.18 4.36 4.36 0 0 0 0-.52V6.8l7-1.55v7.09a3.49 3.49 0 1 0 2 3.17 4.57 4.57 0 0 0 0-.51z" fill="#ffffff" class="color000 svgShape"></path></g></g></svg></g></svg>