<svg id="SvgjsSvg1028" width="288" height="288" xmlns="http://www.w3.org/2000/svg" version="1.1" xmlns:xlink="http://www.w3.org/1999/xlink" xmlns:svgjs="http://svgjs.com/svgjs"><circle id="SvgjsCircle1039" r="144" cx="144" cy="144" fill="#667df3" transform="matrix(0.9167,0,0,0.9167,11.995200000000011,11.995200000000011)"></circle><defs id="SvgjsDefs1029"></defs><g id="SvgjsG1030" transform="matrix(0.4652,0,0,0.4652,77.01032734718322,77.01119336967469)"><svg xmlns="http://www.w3.org/2000/svg" viewBox="0 0 100 100" width="288" height="288"><g data-name="Layer 14" fill="#ffffff" class="color000 svgShape"><polygon points="59.5 16.35 53.9 10.75 47.67 16.97 55.83 20.03 59.5 16.35" fill="#ffffff" class="color000 svgShape"></polygon><polygon points="44.07 10.57 38.47 4.96 32.24 11.19 40.4 14.25 44.07 10.57" fill="#ffffff" class="color000 svgShape"></polygon><polygon points="89.25 46.1 83.65 40.5 79.97 44.17 83.03 52.33 89.25 46.1" fill="#ffffff" class="color000 svgShape"></polygon><polygon points="85.75 59.6 88.81 67.76 95.04 61.53 89.43 55.93 85.75 59.6" fill="#ffffff" class="color000 svgShape"></polygon><path d="M59.15 55.77l30 39.74 5-9.18L76.47 39.12C70.52 45 64.55 50.68 59.15 55.77zM60.88 23.53L13.67 5.84l-9.18 5 39.74 30C49.32 35.45 55 29.48 60.88 23.53z" fill="#ffffff" class="color000 svgShape"></path><path d="M94.12,5.88s-1.05-1.39-3.86-1.39C86.46,4.49,79.44,7,67.48,19,46.66,39.81,25.91,62.88,25.91,62.88L12.77,65.23,6.65,73.49,23,77l3.54,16.32,8.26-6.12,2.35-13.14S60.19,53.34,81,32.52,94.12,5.88,94.12,5.88Z" fill="#ffffff" class="color000 svgShape"></path></g></svg></g></svg>